<svg version="1.1" id="Layer_1" xmlns="http://www.w3.org/2000/svg" xmlns:xlink="http://www.w3.org/1999/xlink" x="0px" y="0px"
	 width="100%" viewBox="0 0 1024 768" enable-background="new 0 0 1024 768" xml:space="preserve">
<path fill="#4D5BC8" opacity="1.000000" stroke="none" 
	d="
M335.000000,1.000000 
	C564.955444,1.000000 794.910889,1.000000 1024.933105,1.000000 
	C1024.933105,256.905853 1024.933105,512.811707 1024.933105,769.000000 
	C795.305359,769.000000 565.610657,769.000000 335.242310,768.656860 
	C333.747772,768.196777 332.930298,768.040039 332.105438,767.968750 
	C296.671997,764.902100 262.565063,756.567566 229.966476,742.248779 
	C178.180771,719.501953 134.928268,685.651489 99.240135,641.912964 
	C67.490555,603.001526 43.967823,559.575256 28.993788,511.720642 
	C8.321278,445.654602 4.937983,378.394562 16.899118,310.282623 
	C29.710163,237.330963 58.737770,171.924225 108.117043,116.265182 
	C163.706024,53.606724 232.557236,15.076344 316.033447,3.756488 
	C322.363831,2.898053 328.678192,1.921597 335.000000,1.000000 
z"/>
<path fill="#FEFEFF" opacity="1.000000" stroke="none" 
	d="
M334.531342,1.000000 
	C328.678192,1.921597 322.363831,2.898053 316.033447,3.756488 
	C232.557236,15.076344 163.706024,53.606724 108.117043,116.265182 
	C58.737770,171.924225 29.710163,237.330963 16.899118,310.282623 
	C4.937983,378.394562 8.321278,445.654602 28.993788,511.720642 
	C43.967823,559.575256 67.490555,603.001526 99.240135,641.912964 
	C134.928268,685.651489 178.180771,719.501953 229.966476,742.248779 
	C262.565063,756.567566 296.671997,764.902100 332.105438,767.968750 
	C332.930298,768.040039 333.747772,768.196777 334.784363,768.656860 
	C223.700562,769.000000 112.401123,769.000000 1.050845,769.000000 
	C1.050845,513.111877 1.050845,257.223694 1.050845,1.000000 
	C112.020668,1.000000 223.041672,1.000000 334.531342,1.000000 
z"/>
</svg>